<svg xmlns="http://www.w3.org/2000/svg" width="1200" height="630" viewBox="0 0 1200 630">
  <rect width="1200" height="630" fill="#0a0a0a"/>
  <g opacity=".16">
    <path d="M0 90h1200M0 180h1200M0 270h1200M0 360h1200M0 450h1200M0 540h1200" stroke="#f5f5f5"/>
    <path d="M120 0v630M240 0v630M360 0v630M480 0v630M600 0v630M720 0v630M840 0v630M960 0v630M1080 0v630" stroke="#f5f5f5"/>
  </g>
  <rect x="72" y="72" width="64" height="64" fill="#f5f5f5"/>
  <text x="104" y="113" font-family="JetBrains Mono, monospace" font-size="22" font-weight="800" fill="#0a0a0a" text-anchor="middle">DD</text>
  <text x="72" y="290" font-family="Bebas Neue, Impact, sans-serif" font-size="150" fill="#f5f5f5">DEVDOIDO</text>
  <text x="72" y="382" font-family="Bebas Neue, Impact, sans-serif" font-size="92" fill="#f5f5f5">SEM RODEIO.</text>
  <text x="72" y="452" font-family="JetBrains Mono, monospace" font-size="24" fill="#737373">// programacao · IA · SaaS · carreira dev</text>
  <rect x="72" y="500" width="186" height="38" rx="19" fill="#ff3a2d"/>
  <text x="165" y="525" font-family="Inter, sans-serif" font-size="18" font-weight="800" fill="#fff" text-anchor="middle">devdoido.com.br</text>
</svg>
